<svg xmlns="http://www.w3.org/2000/svg" width="19" height="19" viewBox="0 0 19 19" fill="none"><path fill-rule="evenodd" clip-rule="evenodd" d="M9.5 0C4.25283 0 0 4.25363 0 9.5C0 14.7464 4.25283 19 9.5 19C14.7464 19 19 14.7464 19 9.5C19 4.25363 14.7464 0 9.5 0ZM9.61083 15.0559C6.54867 15.0559 4.06917 12.5701 4.06917 9.5C4.06917 6.42992 6.54867 3.94408 9.61083 3.94408C11.1071 3.94408 12.3579 4.49587 13.3174 5.39204L11.7547 6.95796V6.95479C11.1728 6.39904 10.435 6.11404 9.61083 6.11404C7.78208 6.11404 6.29613 7.66254 6.29613 9.49683C6.29613 11.3295 7.78208 12.8828 9.61083 12.8828C11.2702 12.8828 12.3991 11.9312 12.6318 10.625H9.61083V8.45817H14.824C14.8936 8.83025 14.9308 9.21817 14.9308 9.62508C14.9308 12.7997 12.8115 15.0559 9.61083 15.0559Z" fill="white"></path></svg>