<svg xmlns="http://www.w3.org/2000/svg" width="40" height="40" viewBox="0 0 40 40" fill="none"><path d="M20 3.75C15.66 3.75 11.5775 5.44 8.51 8.51C5.4425 11.58 3.75 15.66 3.75 20C3.75 24.34 5.44 28.4225 8.51 31.49C11.58 34.5575 15.66 36.25 20 36.25C24.34 36.25 28.4225 34.56 31.49 31.49C34.5575 28.42 36.25 24.34 36.25 20C36.25 15.66 34.56 11.5775 31.49 8.51C28.42 5.4425 24.34 3.75 20 3.75ZM20 0C25.3043 0 30.3914 2.10714 34.1421 5.85786C37.8929 9.60859 40 14.6957 40 20C40 25.3043 37.8929 30.3914 34.1421 34.1421C30.3914 37.8929 25.3043 40 20 40C14.6957 40 9.60859 37.8929 5.85786 34.1421C2.10714 30.3914 0 25.3043 0 20C0 14.6957 2.10714 9.60859 5.85786 5.85786C9.60859 2.10714 14.6957 0 20 0V0ZM17.5 27.5H22.5V32.5H17.5V27.5ZM17.5 7.5H22.5V22.5H17.5V7.5Z" fill="white"></path></svg>